# Blender v2.78 (sub 0) OBJ File: 'LowPolyTree.blend'
# www.blender.org
mtllib LowPolyTree.mtl
o Icosphere.002_Icosphere.005
v 0.065452 0.183580 0.127934
v 0.180445 0.183888 -0.021376
v 0.073979 0.183888 -0.176878
v -0.106814 0.183580 -0.123678
v -0.112085 0.183390 0.064708
v -0.030936 0.169380 0.117758
v 0.141009 0.169673 0.067159
v 0.146020 0.169854 -0.112004
v -0.022825 0.169673 -0.172136
v -0.132191 0.169380 -0.030135
v -0.040169 0.013215 0.145272
v 0.075051 0.013844 0.157417
v 0.165327 0.013565 0.084800
v 0.212481 0.014213 -0.021027
v 0.171317 0.013782 -0.129324
v 0.085242 0.014213 -0.206872
v -0.030475 0.013566 -0.201189
v -0.130829 0.013844 -0.143291
v -0.161182 0.013215 -0.031479
v -0.137129 0.013617 0.081854
v 0.052758 0.011433 0.081649
v -0.071957 0.011299 0.037235
v 0.020967 0.010585 -0.026387
v 0.133537 0.011650 -0.023237
v 0.058748 0.011650 -0.132474
v -0.068254 0.011433 -0.095102
v -0.016097 0.471134 0.075183
v 0.051523 0.481096 0.082322
v 0.104529 0.471339 0.039686
v 0.132195 0.481312 -0.022425
v 0.108045 0.471467 -0.086004
v 0.057505 0.481312 -0.131516
v -0.010407 0.471339 -0.128189
v -0.069328 0.481096 -0.094193
v -0.087131 0.471134 -0.028570
v -0.073026 0.480963 0.037966
v -0.134659 0.482700 0.408061
v 0.156344 0.525570 0.438782
v 0.384454 0.483584 0.255300
v 0.503514 0.526501 -0.011993
v 0.399585 0.484132 -0.285607
v 0.182088 0.526501 -0.481467
v -0.110172 0.483584 -0.467150
v -0.363740 0.525571 -0.320850
v -0.440355 0.482700 -0.038438
v -0.379653 0.524998 0.247899
v -0.007056 0.927061 0.048629
v 0.042491 0.934360 0.053860
v 0.081331 0.927212 0.022620
v 0.101602 0.934519 -0.022891
v 0.083907 0.927305 -0.069478
v 0.046875 0.934519 -0.102826
v -0.002887 0.927212 -0.100388
v -0.046060 0.934360 -0.075478
v -0.059105 0.927061 -0.027394
v -0.048770 0.934263 0.021359
v -0.007165 0.936091 0.048704
v 0.042382 0.943390 0.053935
v 0.081221 0.936241 0.022694
v 0.101493 0.943548 -0.022816
v 0.083798 0.936334 -0.069403
v 0.046766 0.943548 -0.102751
v -0.002996 0.936241 -0.100313
v -0.046169 0.943390 -0.075404
v -0.059214 0.936091 -0.027319
v -0.048879 0.943292 0.021434
v -0.119758 0.948961 0.364851
v 0.141952 0.987516 0.392480
v 0.347100 0.949756 0.227468
v 0.454174 0.988353 -0.012918
v 0.360707 0.950249 -0.258990
v 0.165104 0.988353 -0.435133
v -0.097735 0.949756 -0.422257
v -0.325778 0.987516 -0.290685
v -0.394681 0.948961 -0.036702
v -0.340089 0.987001 0.220811
v -0.008748 1.670401 0.050976
v 0.041853 1.677855 0.056318
v 0.081518 1.670555 0.024413
v 0.102221 1.678017 -0.022066
v 0.084149 1.670650 -0.069644
v 0.046330 1.678017 -0.103701
v -0.004490 1.670555 -0.101211
v -0.048582 1.677855 -0.075772
v -0.061905 1.670401 -0.026664
v -0.051349 1.677756 0.023126
v -0.065766 1.716685 0.210937
v 0.092153 1.739949 0.227608
v 0.215943 1.717164 0.128038
v 0.280553 1.740454 -0.017015
v 0.224154 1.717461 -0.165498
v 0.106124 1.740454 -0.271785
v -0.052478 1.717164 -0.264016
v -0.190081 1.739949 -0.184623
v -0.231659 1.716685 -0.031366
v -0.198717 1.739639 0.124021
v 0.003807 2.183274 0.014179
v 0.029380 2.187041 0.016878
v 0.049426 2.183352 0.000754
v 0.059889 2.187123 -0.022735
v 0.050756 2.183400 -0.046780
v 0.031642 2.187123 -0.063992
v 0.005959 2.183352 -0.062734
v -0.016325 2.187041 -0.049877
v -0.023057 2.183274 -0.025059
v -0.017723 2.186991 0.000104
v -0.045497 1.655851 -0.073499
v -0.003399 1.648880 -0.097788
v 0.040850 1.655851 0.052620
v -0.007464 1.648733 0.047519
v 0.081234 1.648971 -0.067647
v 0.098489 1.656005 -0.022220
v -0.048139 1.655756 0.020928
v -0.058218 1.648733 -0.026611
v 0.078722 1.648880 0.022157
v 0.045124 1.656005 -0.100165
vn 0.5740 0.6511 -0.4966
vn -0.7534 0.6490 -0.1059
vn 0.5453 0.6501 0.5292
vn -0.2961 0.6501 -0.6998
vn -0.1738 0.6490 0.7407
vn 0.6706 0.6511 -0.3555
vn -0.7581 0.6489 0.0649
vn 0.6496 0.6504 0.3938
vn -0.1321 0.6504 -0.7480
vn -0.3347 0.6489 0.6833
vn -0.9055 0.4031 0.1324
vn -0.0014 1.0000 0.0010
vn 0.8092 0.4052 0.4255
vn -0.1040 0.4052 -0.9083
vn -0.4510 0.4031 0.7963
vn 0.6539 0.4060 -0.6384
vn -0.8967 0.4034 -0.1820
vn 0.6172 0.4047 0.6747
vn -0.4058 0.4047 -0.8195
vn -0.1546 0.4034 0.9019
vn 0.8317 0.4060 -0.3788
vn 0.6126 0.4299 0.6632
vn -0.8863 0.4287 -0.1754
vn 0.6487 0.4312 -0.6271
vn -0.4415 0.4284 0.7884
vn -0.1071 0.4304 -0.8963
vn 0.7968 0.4304 0.4240
vn -0.8947 0.4284 0.1264
vn 0.8193 0.4312 -0.3780
vn -0.1571 0.4287 0.8897
vn -0.3967 0.4299 -0.8110
vn 0.6261 0.1751 0.7598
vn -0.1152 0.1710 0.9785
vn -0.9539 0.1710 -0.2465
vn -0.4819 0.1751 -0.8586
vn -0.5297 0.1696 0.8311
vn -0.0606 0.1774 -0.9823
vn 0.6674 0.1799 -0.7227
vn 0.9151 0.1799 -0.3608
vn 0.8939 0.1774 0.4118
vn -0.9664 0.1696 0.1933
vn 0.6776 0.1474 -0.7205
vn -0.9603 0.1446 -0.2386
vn 0.6362 0.1459 0.7576
vn -0.4762 0.1459 -0.8672
vn -0.1249 0.1446 0.9816
vn 0.9168 0.1474 -0.3711
vn -0.9721 0.1442 0.1848
vn 0.8946 0.1466 0.4220
vn -0.0699 0.1466 -0.9867
vn -0.5239 0.1442 0.8395
vn -0.9647 -0.0095 -0.2632
vn 0.6269 0.0011 0.7791
vn -0.4996 0.0011 -0.8663
vn -0.1036 -0.0095 0.9946
vn 0.9340 0.0143 -0.3570
vn -0.9778 -0.0136 0.2093
vn 0.9130 0.0077 0.4079
vn -0.0501 0.0077 -0.9987
vn -0.5488 -0.0136 0.8359
vn 0.6706 0.0143 -0.7416
vn -0.5130 -0.1591 -0.8435
vn -0.0800 -0.1617 0.9836
vn 0.9312 -0.1556 -0.3296
vn -0.9601 -0.1628 0.2276
vn 0.9113 -0.1572 0.3807
vn -0.0253 -0.1572 -0.9872
vn -0.5594 -0.1628 0.8127
vn 0.6441 -0.1556 -0.7489
vn -0.9459 -0.1617 -0.2812
vn 0.6008 -0.1591 0.7834
vn -0.1565 -0.9874 -0.0214
vn -0.0587 -0.9872 -0.1484
vn -0.0279 -0.9871 -0.1574
vn -0.0668 -0.9875 0.1429
vn -0.1574 -0.9875 0.0106
vn 0.1367 -0.9871 0.0830
vn 0.1171 -0.9872 0.1084
vn -0.0366 -0.9874 0.1536
vn 0.1230 -0.9870 -0.1037
vn 0.1411 -0.9870 -0.0772
vn -0.0632 -0.9871 0.1473
vn -0.1602 -0.9871 0.0057
vn 0.1360 -0.9867 0.0886
vn 0.1224 -0.9868 0.1063
vn -0.0422 -0.9871 0.1548
vn 0.1282 -0.9866 -0.1013
vn 0.1408 -0.9866 -0.0829
vn -0.1595 -0.9871 -0.0166
vn -0.0549 -0.9868 -0.1525
vn -0.0334 -0.9867 -0.1589
vn 0.1063 -0.9444 0.3111
vn 0.3298 -0.9438 0.0209
vn -0.2630 -0.9448 0.1953
vn 0.3306 -0.9438 -0.0043
vn 0.1236 -0.9438 -0.3066
vn -0.2772 -0.9448 0.1746
vn 0.0999 -0.9438 -0.3151
vn -0.2516 -0.9444 -0.2116
vn 0.0821 -0.9444 0.3182
vn -0.2670 -0.9444 -0.1917
vn 0.0022 -0.9995 0.0312
vn 0.0322 -0.9994 0.0082
vn 0.0197 -0.9994 -0.0274
vn -0.0181 -0.9995 -0.0265
vn -0.0289 -0.9995 0.0097
vn -0.0085 -1.0000 -0.0013
vn -0.0203 -0.9998 -0.0016
vn -0.0283 -0.9995 -0.0133
vn -0.0014 -0.9999 -0.0105
vn -0.0047 -0.9998 -0.0218
vn 0.0040 -0.9994 -0.0330
vn 0.0096 -0.9999 -0.0066
vn 0.0193 -0.9997 -0.0132
vn 0.0327 -0.9994 -0.0084
vn 0.0093 -0.9999 0.0051
vn 0.0186 -0.9998 0.0123
vn 0.0182 -0.9995 0.0265
vn -0.0019 -1.0000 0.0084
vn -0.0059 -0.9998 0.0195
vn -0.0195 -0.9995 0.0235
usemtl PLANT.005
s off
f 41//1 42//1 52//1 51//1
f 44//2 45//2 55//2 54//2
f 38//3 39//3 49//3 48//3
f 43//4 44//4 54//4 53//4
f 37//5 38//5 48//5 47//5
f 40//6 41//6 51//6 50//6
f 45//7 46//7 56//7 55//7
f 39//8 40//8 50//8 49//8
f 42//9 43//9 53//9 52//9
f 46//10 37//10 47//10 56//10

